<svg id="Layer_1" data-name="Layer 1" xmlns="http://www.w3.org/2000/svg" viewBox="0 0 63.7 66.8"><defs><style>.cls-1{fill:#565656;}</style></defs><title>download-button</title><path class="cls-1" d="M60.2,66.8H3.5a3.5,3.5,0,0,1,0-7H60.2a3.5,3.5,0,0,1,0,7Z"/><path class="cls-1" d="M31.9,51.75a3.54,3.54,0,0,1-3.5-3.5V3.5a3.5,3.5,0,0,1,7,0V48.2A3.54,3.54,0,0,1,31.9,51.75Z"/><path class="cls-1" d="M31.9,51.75a3.44,3.44,0,0,1-2.5-1L13,34.2a3.46,3.46,0,1,1,4.9-4.9h0L34.3,45.75a3.38,3.38,0,0,1,.12,4.78l-.12.12A2.91,2.91,0,0,1,31.9,51.75Z"/><path class="cls-1" d="M31.9,51.75a3.44,3.44,0,0,1-2.5-1A3.38,3.38,0,0,1,29.28,46l.12-.12L45.9,29.3a3.46,3.46,0,0,1,4.9,4.9h0L34.4,50.75A3.44,3.44,0,0,1,31.9,51.75Z"/></svg>