<svg id="Layer_1" data-name="Layer 1" xmlns="http://www.w3.org/2000/svg" viewBox="0 0 63.7 66.8"><defs><style>.cls-1{fill:#282727;}</style></defs><title>download-button</title><path class="cls-1" d="M80.3,94.05H23.6a3.5,3.5,0,0,1,0-7H80.3a3.5,3.5,0,0,1,0,7Z" transform="translate(-20.1 -27.25)"/><path class="cls-1" d="M52,79a3.54,3.54,0,0,1-3.5-3.5V30.75a3.5,3.5,0,0,1,7,0v44.7A3.54,3.54,0,0,1,52,79Z" transform="translate(-20.1 -27.25)"/><path class="cls-1" d="M52,79a3.47,3.47,0,0,1-2.5-1L33.1,61.45a3.46,3.46,0,1,1,4.9-4.9L54.4,73a3.38,3.38,0,0,1,0,4.9A2.89,2.89,0,0,1,52,79Z" transform="translate(-20.1 -27.25)"/><path class="cls-1" d="M52,79a3.47,3.47,0,0,1-2.5-1,3.38,3.38,0,0,1,0-4.9L66,56.55a3.46,3.46,0,0,1,4.9,4.9L54.5,78A3.47,3.47,0,0,1,52,79Z" transform="translate(-20.1 -27.25)"/></svg>