<svg xmlns="http://www.w3.org/2000/svg" xmlns:xlink="http://www.w3.org/1999/xlink" version="1.1" x="0px" y="0px" viewBox="0 0 500 625" enable-background="new 0 0 500 500" xml:space="preserve"><g><path fill-rule="evenodd" clip-rule="evenodd" d="M418.455,188.455C418.455,95.418,343.037,20,250.001,20   C156.964,20,81.546,95.418,81.546,188.455c0,33.983,10.074,65.614,27.383,92.079h-0.298l126.278,201.831h0.005   c2.759,5.539,8.479,9.349,15.087,9.349c6.607,0,12.327-3.811,15.085-9.349h0.006l126.279-201.831h-0.299   C408.382,254.068,418.455,222.438,418.455,188.455L418.455,188.455 M250.001,111.641c42.425,0,76.814,34.389,76.814,76.814   c0,42.426-34.389,76.814-76.814,76.814s-76.815-34.389-76.815-76.814C173.187,146.03,207.575,111.641,250.001,111.641   L250.001,111.641 M250.001,111.641L250.001,111.641z"/></g><text x="0" y="515" fill="#000000" font-size="5px" font-weight="bold" font-family="'Helvetica Neue', Helvetica, Arial-Unicode, Arial, Sans-serif">Created by Rooty</text><text x="0" y="520" fill="#000000" font-size="5px" font-weight="bold" font-family="'Helvetica Neue', Helvetica, Arial-Unicode, Arial, Sans-serif">from the Noun Project</text></svg>