<svg xmlns="http://www.w3.org/2000/svg" width="77.771" height="74.752" viewBox="0 0 77.771 74.752">
  <g id="noun_Add_Image_3752804" data-name="noun_Add Image_3752804" transform="translate(-6.642 -91.556)">
    <g id="Group_33" data-name="Group 33" transform="translate(6.642 91.556)">
      <g id="Group_24" data-name="Group 24" transform="translate(0 0)">
        <g id="Group_23" data-name="Group 23">
          <path id="Path_8" data-name="Path 8" d="M116.816,153.591H79.057c-.044,0-.124-.062-.124,0,0-.044.6.142.24.027a1.621,1.621,0,0,1-.222-.062l.32.133a1.39,1.39,0,0,0-.293-.169c.053.009.4.382.187.133-.391-.445.267.409-.062-.089-.187-.276.1.16.089.213.018-.1-.107-.231-.089-.338,0,0,.027.613.053.231V101.544c0-1.832-.009-3.654,0-5.486v-.124c-.018-.427-.133.4-.036.169a.837.837,0,0,0,.071-.285c.018.329-.213.418-.089.213.018-.036.036-.062.053-.1.124-.187.08-.133-.151.178a3.056,3.056,0,0,0,.24-.24c-.169.276-.382.276-.124.116.276-.169.133.08-.169.053a1.207,1.207,0,0,0,.222-.062c.409-.133-.551,0-.116.027h60.876c.382-.018-.231-.053-.231-.053.107-.018.24.107.338.089l-.32-.133c.071.036.133.071.2.107.293.133-.151-.1-.178-.151a1.026,1.026,0,0,0,.24.24c-.053-.027-.285-.462-.151-.178.027.062.222.409.036.044-.169-.356-.036-.018-.009.062.116.356-.071-.231-.027-.24-.036,0,.009.089,0,.133v34.612a2.223,2.223,0,1,0,4.445,0V98.459c0-.818.009-1.645,0-2.463a4.444,4.444,0,0,0-4.517-4.437c-1.832-.009-3.663,0-5.486,0H84.222c-1.689,0-3.387-.009-5.077,0A4.442,4.442,0,0,0,74.7,96.032v57.586a4.417,4.417,0,0,0,2.329,3.9,6.942,6.942,0,0,0,3.334.507h36.453a2.218,2.218,0,1,0,0-4.437Z" transform="translate(-74.7 -91.556)" fill="#a9a9a9"/>
        </g>
      </g>
      <g id="Group_26" data-name="Group 26" transform="translate(0.018 19.834)">
        <g id="Group_25" data-name="Group 25">
          <path id="Path_9" data-name="Path 9" d="M117,356.839H79.888c-.2,0-.418-.009-.622,0-.436.018.5.151.107.027a1.206,1.206,0,0,0-.222-.062l.32.133c-.071-.036-.133-.071-.2-.107-.2-.1-.044-.187.178.151a1.362,1.362,0,0,1-.16-.16q-.227-.253.133.187a1.414,1.414,0,0,0-.116-.2c-.222-.347.116.516.053.107a.974.974,0,0,0-.053-.231c.116.267.036.516.053.231V356.8c-.027-3.788,0-7.584,0-11.371v-.365c-.213.525-.436,1.049-.649,1.574l9.229-9.149c.436-.427.862-.854,1.3-1.28H86.085l4.072,4.045q3.241,3.214,6.481,6.437c.5.489.987.987,1.485,1.476a2.263,2.263,0,0,0,3.147,0c.987-.987,1.983-1.974,2.97-2.961q3.574-3.547,7.139-7.1,4.321-4.294,8.642-8.6,3.734-3.721,7.468-7.433c1.209-1.2,2.463-2.365,3.627-3.61l.053-.053h-3.147c1.431,1.423,2.863,2.836,4.3,4.259q3.414,3.374,6.819,6.748c.525.516,1.049,1.04,1.574,1.556-.213-.525-.436-1.049-.649-1.574v4.392a2.223,2.223,0,0,0,4.445,0c0-1.458.053-2.925,0-4.383a2.8,2.8,0,0,0-1.076-1.992c-.445-.436-.889-.88-1.334-1.316q-4.281-4.241-8.571-8.482l-2.374-2.347a2.263,2.263,0,0,0-3.147,0c-.987.987-1.983,1.974-2.97,2.961q-3.574,3.547-7.139,7.1-4.321,4.294-8.642,8.6-3.734,3.721-7.468,7.433c-1.209,1.2-2.463,2.365-3.627,3.61l-.053.053h3.147l-4.072-4.045q-3.241-3.214-6.481-6.437c-.5-.489-.987-.987-1.485-1.476a2.271,2.271,0,0,0-3.147,0c-1.431,1.414-2.863,2.836-4.294,4.25l-5.788,5.735c-.142.142-.293.285-.436.436a2.638,2.638,0,0,0-.658,1.938v11.309a4.448,4.448,0,0,0,4.374,4.543c.32.009.631,0,.951,0h36.791a2.247,2.247,0,0,0,2.223-2.223A2.293,2.293,0,0,0,117,356.839Z" transform="translate(-74.9 -314.637)" fill="#a9a9a9"/>
        </g>
      </g>
      <g id="Group_28" data-name="Group 28" transform="translate(12.163 9.946)">
        <g id="Group_27" data-name="Group 27" transform="translate(0)">
          <path id="Path_10" data-name="Path 10" d="M222.561,211.2c0,.124,0,.249-.009.373a1.324,1.324,0,0,1-.018.187c-.018.284.089-.507.027-.231-.053.258-.107.507-.187.765-.036.116-.089.222-.116.338.178-.613.1-.222.009-.044-.116.231-.258.436-.391.658-.187.3.365-.409.027-.036-.08.089-.151.178-.231.258-.178.178-.382.329-.56.507.018-.027.462-.32.169-.142a.8.8,0,0,0-.142.1,3.374,3.374,0,0,1-.3.178c-.107.053-.2.107-.311.16-.436.222.453-.16-.018,0a5.674,5.674,0,0,1-.693.2c-.089.018-.525.089-.124.036s-.142,0-.258.009a6.989,6.989,0,0,1-.747-.027c-.24-.009.311.044.285.044-.053-.018-.124-.018-.178-.036-.16-.027-.311-.071-.471-.107-.116-.036-.231-.071-.338-.107-.053-.018-.107-.044-.169-.062-.018,0,.453.222.258.107-.231-.142-.489-.249-.72-.391-.08-.053-.409-.3-.107-.062s-.027-.027-.089-.08a6.964,6.964,0,0,1-.569-.578c-.036-.044-.071-.1-.107-.133-.009-.009.276.409.169.213-.062-.116-.151-.222-.222-.338a3.473,3.473,0,0,1-.169-.311c-.044-.089-.24-.525-.089-.16s-.009-.036-.036-.124c-.044-.133-.08-.267-.116-.4-.027-.116-.053-.24-.071-.356-.071-.356.044.533.009.044a6.14,6.14,0,0,1-.009-.809,1.328,1.328,0,0,1,.018-.187c.009-.24-.044.311-.044.285.036-.133.053-.276.08-.418.062-.249.169-.489.231-.738.009-.018-.222.462-.107.258a1.261,1.261,0,0,0,.071-.16c.071-.142.142-.276.222-.409.062-.1.133-.2.187-.293.2-.32-.311.356-.062.08a7.021,7.021,0,0,1,.56-.587c.089-.08.187-.142.267-.222.009-.009-.409.276-.213.169.053-.027.1-.071.142-.1a8.056,8.056,0,0,1,.711-.4c.338-.178-.453.16-.1.044.116-.036.222-.08.338-.116.133-.036.267-.071.409-.107.062-.009.116-.027.178-.036.3-.062-.16.027-.231.027.249,0,.5-.036.747-.036.142,0,.285.018.436.027.24.009-.311-.044-.285-.044.08.018.16.027.24.044.293.062.578.16.862.249.222.071-.276-.124-.258-.116a1.56,1.56,0,0,0,.213.1c.124.062.24.124.365.2s.258.178.391.258c.2.107-.222-.187-.213-.169.053.053.124.1.178.151a5.913,5.913,0,0,1,.578.578c.044.053.1.124.151.178-.044-.044-.293-.418-.142-.169.071.116.151.231.222.347s.133.24.2.365c.036.062.062.151.1.213-.036-.053-.187-.489-.089-.2a8.411,8.411,0,0,1,.231.809,2.277,2.277,0,0,0,.044.24c-.018-.062-.053-.533-.036-.222a4,4,0,0,1,.027.48,2.223,2.223,0,1,0,4.445,0,7.887,7.887,0,0,0-5.263-7.344,7.734,7.734,0,0,0-8.375,2.294,7.758,7.758,0,1,0,13.639,5.059,2.223,2.223,0,0,0-4.445-.009Z" transform="translate(-211.501 -203.427)" fill="#a9a9a9"/>
        </g>
      </g>
      <g id="Group_30" data-name="Group 30" transform="translate(61.543 46.751)">
        <g id="Group_29" data-name="Group 29" transform="translate(0 0)">
          <path id="Path_11" data-name="Path 11" d="M766.9,619.6v23.552a2.223,2.223,0,0,0,4.445,0V619.6a2.223,2.223,0,0,0-4.445,0Z" transform="translate(-766.9 -617.379)" fill="#a9a9a9"/>
        </g>
      </g>
      <g id="Group_32" data-name="Group 32" transform="translate(49.77 58.524)">
        <g id="Group_31" data-name="Group 31" transform="translate(0 0)">
          <path id="Path_12" data-name="Path 12" d="M636.7,754.245h23.552a2.223,2.223,0,1,0,0-4.445H636.7a2.223,2.223,0,0,0,0,4.445Z" transform="translate(-634.479 -749.8)" fill="#a9a9a9"/>
        </g>
      </g>
    </g>
  </g>
</svg>
