<svg id="Layer_1" data-name="Layer 1" xmlns="http://www.w3.org/2000/svg" viewBox="0 0 25.36 29"><title>bell</title><path d="M19,27v.18a3,3,0,0,1-6,0V27ZM5.32,25a2,2,0,0,1-2-2,2,2,0,0,1,.22-.91Q5,19.15,7,16a34.51,34.51,0,0,0,.61-5.06c.21-4.31,2.53-6.83,6.4-7.72A1.62,1.62,0,0,1,14,3a2,2,0,0,1,4,0,1.55,1.55,0,0,1,0,.22c3.84.9,6.19,3.41,6.4,7.72L25,16c.14,1.12,2,3.15,3.46,6.09a2,2,0,0,1-.87,2.69,2,2,0,0,1-.91.22ZM16,5h-.2c-3.58.1-6,1.87-6.19,6l0,.77,0,.76a22.68,22.68,0,0,1-.59,4c-.25.87-2,3.14-3.23,5.65L5.32,23H26.68l-.19-.37c-1.42-2.82-3.23-4.83-3.45-6.2L23,15.74l-.54-4.56V11c-.21-4.14-2.61-5.92-6.16-6Z" transform="translate(-3.32 -1)"/></svg>