<svg id="Layer_1" data-name="Layer 1" xmlns="http://www.w3.org/2000/svg" viewBox="0 0 819.22 819.22"><defs><style>.cls-1{fill:#003fff;}</style></defs><title>collect-confirm</title><path class="cls-1" d="M409.61,0C635.82,0,819.22,183.4,819.22,409.61S635.82,819.22,409.61,819.22,0,635.82,0,409.61,183.41,0,409.61,0ZM177.81,427.21c-37-37,19.26-93.27,56.27-56.26L348.74,485.61l236.41-236.4c37-37,93.27,19.26,56.26,56.27L376.88,570a39.8,39.8,0,0,1-56.27,0l-142.8-142.8ZM409.61,79.59c-182.27,0-330,147.75-330,330s147.75,330,330,330,330-147.75,330-330-147.75-330-330-330Z"/></svg>