<svg id="Layer_1" data-name="Layer 1" xmlns="http://www.w3.org/2000/svg" xmlns:xlink="http://www.w3.org/1999/xlink" viewBox="0 0 1720.38 771"><defs><style>.cls-1{fill:#262626;}.cls-2{font-size:30px;fill:#fff;}.cls-2,.cls-22,.cls-62,.cls-63{font-family:SegoeUI-Bold, Segoe UI;font-weight:700;}.cls-3{letter-spacing:-0.01em;}.cls-4{letter-spacing:0.01em;}.cls-5{letter-spacing:0em;}.cls-6{letter-spacing:0em;}.cls-7{letter-spacing:0.01em;}.cls-8{letter-spacing:-0.01em;}.cls-9{letter-spacing:0em;}.cls-10{letter-spacing:0em;}.cls-11{letter-spacing:0em;}.cls-12{letter-spacing:-0.01em;}.cls-13{letter-spacing:0em;}.cls-14{letter-spacing:0em;}.cls-15{letter-spacing:-0.02em;}.cls-16{letter-spacing:0em;}.cls-17{letter-spacing:-0.01em;}.cls-18{letter-spacing:-0.01em;}.cls-19{letter-spacing:-0.01em;}.cls-20{letter-spacing:0em;}.cls-21{letter-spacing:0em;}.cls-22,.cls-62,.cls-63{font-size:24px;}.cls-22{fill:#f9f9f9;}.cls-23{letter-spacing:-0.01em;}.cls-24{letter-spacing:0.01em;}.cls-25{letter-spacing:0em;}.cls-26{letter-spacing:0em;}.cls-27{letter-spacing:-0.01em;}.cls-28{letter-spacing:-0.01em;}.cls-29{letter-spacing:-0.01em;}.cls-30{letter-spacing:0em;}.cls-31{letter-spacing:-0.01em;}.cls-32{letter-spacing:0em;}.cls-33{letter-spacing:0em;}.cls-34{letter-spacing:0em;}.cls-35{letter-spacing:0em;}.cls-36{letter-spacing:-0.01em;}.cls-37{letter-spacing:-0.01em;}.cls-38{letter-spacing:0em;}.cls-39{letter-spacing:-0.02em;}.cls-40{letter-spacing:0.01em;}.cls-41{letter-spacing:0em;}.cls-42{letter-spacing:0em;}.cls-43{letter-spacing:-0.01em;}.cls-44{letter-spacing:-0.01em;}.cls-45{letter-spacing:0em;}.cls-46{letter-spacing:0em;}.cls-47{letter-spacing:-0.01em;}.cls-48{letter-spacing:-0.01em;}.cls-49{letter-spacing:0.01em;}.cls-50{letter-spacing:0em;}.cls-51,.cls-53,.cls-56{fill:none;}.cls-51,.cls-52,.cls-53,.cls-56{stroke:#fff;stroke-miterlimit:10;}.cls-51,.cls-52{stroke-dasharray:12;}.cls-52{fill:#e0e0e0;}.cls-53{stroke-width:2px;}.cls-54,.cls-55{font-size:36px;}.cls-54{fill:#ededed;}.cls-54,.cls-55,.cls-59,.cls-61{font-family:SegoeUI-Semibold, Segoe UI;font-weight:600;}.cls-55,.cls-57{fill:#003fff;}.cls-56{opacity:0.36;}.cls-58{fill:url(#linear-gradient);}.cls-59{font-size:21px;}.cls-60{letter-spacing:-0.03em;}.cls-61{font-size:28px;fill:#f2f2f2;}.cls-62{fill:#0040ff;}.cls-63{fill:#fcfcfc;}</style><linearGradient id="linear-gradient" x1="187.38" y1="666.5" x2="1662.38" y2="666.5" gradientUnits="userSpaceOnUse"><stop offset="0" stop-color="blue"/><stop offset="1" stop-color="#fff"/></linearGradient></defs><title>creative-thinking</title><rect class="cls-1" x="135.38" width="1585" height="771" rx="13.69"/><text class="cls-2" transform="translate(726.13 69.62)">4 <tspan class="cls-3" x="25.53" y="0">s</tspan><tspan class="cls-4" x="38.5" y="0">t</tspan><tspan class="cls-5" x="50.34" y="0">a</tspan><tspan class="cls-6" x="66.39" y="0">g</tspan><tspan class="cls-7" x="84.83" y="0">e</tspan><tspan x="101.27" y="0">s </tspan><tspan class="cls-8" x="122.74" y="0">o</tspan><tspan x="140.8" y="0">f </tspan><tspan class="cls-9" x="160.57" y="0">c</tspan><tspan class="cls-10" x="175.06" y="0">r</tspan><tspan class="cls-11" x="187.03" y="0">e</tspan><tspan class="cls-12" x="203.24" y="0">a</tspan><tspan class="cls-13" x="219" y="0">t</tspan><tspan class="cls-14" x="230.68" y="0">i</tspan><tspan class="cls-15" x="239.11" y="0">v</tspan><tspan x="254.73" y="0">e </tspan><tspan class="cls-16" x="279.24" y="0">t</tspan><tspan class="cls-17" x="291.06" y="0">h</tspan><tspan class="cls-18" x="308.92" y="0">i</tspan><tspan class="cls-19" x="317.22" y="0">n</tspan><tspan class="cls-20" x="335.2" y="0">k</tspan><tspan class="cls-18" x="352.01" y="0">i</tspan><tspan class="cls-21" x="360.31" y="0">n</tspan><tspan x="378.42" y="0">g</tspan></text><text class="cls-22" transform="translate(336.3 169.1)"><tspan class="cls-23">I</tspan><tspan class="cls-24" x="7.4" y="0">n</tspan><tspan class="cls-25" x="22.06" y="0">s</tspan><tspan class="cls-26" x="32.65" y="0">p</tspan><tspan class="cls-27" x="47.46" y="0">i</tspan><tspan class="cls-28" x="54.14" y="0">r</tspan><tspan class="cls-29" x="63.44" y="0">a</tspan><tspan class="cls-30" x="76.09" y="0">t</tspan><tspan class="cls-31" x="85.47" y="0">i</tspan><tspan class="cls-32" x="92.15" y="0">o</tspan><tspan x="106.71" y="0">n</tspan></text><text class="cls-22" transform="translate(696.36 169.1)"><tspan class="cls-33">I</tspan><tspan class="cls-34" x="7.54" y="0">d</tspan><tspan class="cls-35" x="22.32" y="0">e</tspan><tspan class="cls-36" x="35.33" y="0">a</tspan><tspan class="cls-30" x="47.97" y="0">t</tspan><tspan class="cls-37" x="57.36" y="0">i</tspan><tspan class="cls-38" x="64.04" y="0">o</tspan><tspan x="78.6" y="0">n</tspan></text><text class="cls-22" transform="translate(1030.2 169.1)"><tspan class="cls-39">R</tspan><tspan x="15.29" y="0">e</tspan><tspan class="cls-40" x="28.28" y="0">f</tspan><tspan class="cls-27" x="37.68" y="0">i</tspan><tspan class="cls-41" x="44.37" y="0">n</tspan><tspan class="cls-21" x="58.8" y="0">m</tspan><tspan class="cls-42" x="80.75" y="0">e</tspan><tspan class="cls-43" x="93.8" y="0">n</tspan><tspan x="108.09" y="0">t</tspan></text><text class="cls-22" transform="translate(1390.41 168.1)"><tspan class="cls-44">F</tspan><tspan class="cls-27" x="12.16" y="0">i</tspan><tspan class="cls-45" x="18.85" y="0">n</tspan><tspan class="cls-46" x="33.35" y="0">a</tspan><tspan class="cls-47" x="46.18" y="0">l</tspan><tspan class="cls-48" x="52.85" y="0">i</tspan><tspan class="cls-49" x="59.53" y="0">z</tspan><tspan class="cls-29" x="71.23" y="0">a</tspan><tspan class="cls-50" x="83.87" y="0">t</tspan><tspan class="cls-37" x="93.26" y="0">i</tspan><tspan class="cls-38" x="99.93" y="0">o</tspan><tspan x="114.5" y="0">n</tspan></text><line class="cls-51" x1="470.38" y1="162.5" x2="683.38" y2="162.5"/><path class="cls-52" d="M562.5,266.5" transform="translate(-57.62 -151)"/><path class="cls-52" d="M585.5,186.5" transform="translate(-57.62 -151)"/><line class="cls-51" x1="808.38" y1="162.5" x2="1021.38" y2="162.5"/><line class="cls-51" x1="1163.38" y1="162.5" x2="1376.38" y2="162.5"/><path class="cls-53" d="M251,116" transform="translate(-57.62 -151)"/><path class="cls-53" d="M960,373" transform="translate(-57.62 -151)"/><line class="cls-53" x1="187.38" y1="242" x2="1662.38" y2="242"/><text class="cls-54" transform="translate(337.63 331.92)">Human</text><text class="cls-55" transform="translate(327.47 504.92)">Machine</text><line class="cls-56" x1="188.38" y1="410.5" x2="1663.38" y2="410.5"/><text class="cls-54" transform="translate(683.63 331.92)">Human</text><text class="cls-54" transform="translate(1029.63 331.92)">Human</text><text class="cls-54" transform="translate(1395.63 331.92)">Human</text><text class="cls-54" transform="translate(600.99 510.92)">Human <tspan class="cls-57" x="129.06" y="0">+ Machine</tspan></text><text class="cls-54" transform="translate(1026.63 511.92)">Human</text><text class="cls-54" transform="translate(1392.63 511.92)">Human</text><rect class="cls-58" x="187.38" y="631" width="1475" height="71" rx="5.27"/><text class="cls-59" transform="translate(332.66 675.01)">Loose</text><text class="cls-59" transform="translate(1430.21 675.01)"><tspan class="cls-60">R</tspan><tspan x="12.52" y="0">efined</tspan></text><text class="cls-61" transform="translate(887.89 680.19)">Quality</text><text class="cls-62" transform="translate(30.13 502.71)">NOW</text><text class="cls-63" transform="translate(31.13 337.77)">BEFORE</text></svg>