<svg id="Layer_1" data-name="Layer 1" xmlns="http://www.w3.org/2000/svg" viewBox="0 0 51 56.5"><title>notification-bell</title><path d="M58.44,71a8.5,8.5,0,0,1-16.88,0H30a5.5,5.5,0,1,1,0-11,.51.51,0,0,0,.5-.5v-12A19.51,19.51,0,0,1,44,28.94V28a6,6,0,0,1,12,0v.94A19.51,19.51,0,0,1,69.5,47.5v12a.5.5,0,0,0,.5.5,5.5,5.5,0,1,1,0,11Zm-3,0H44.59a5.5,5.5,0,0,0,10.82,0ZM45.87,31.52a16.49,16.49,0,0,0-12.37,16v12A3.5,3.5,0,0,1,30,63a2.5,2.5,0,1,0,0,5H70a2.5,2.5,0,1,0,0-5,3.49,3.49,0,0,1-3.5-3.5v-12a16.5,16.5,0,0,0-12.37-16L53,31.23V28a3,3,0,0,0-6,0v3.23Z" transform="translate(-24.5 -22)"/></svg>