<svg id="Layer_1" data-name="Layer 1" xmlns="http://www.w3.org/2000/svg" viewBox="0 0 2000.1 2000.1"><title>picture</title><path d="M625,875c138,0,250-112,250-250S763.1,375,625,375,375,486.9,375,625,486.9,875,625,875Zm0-374.1a124,124,0,1,1-124,124C500.9,556.5,556.5,500.9,625,500.9Z" transform="translate(0.1 0.1)"/><path d="M1812.5-.1H187.4C83.9-.1-.1,83.9-.1,187.4V1812.5A187.44,187.44,0,0,0,187.4,2000H1812.5A187.44,187.44,0,0,0,2000,1812.5V187.4C2000,83.9,1916.1-.1,1812.5-.1ZM249.9,124.9h1500a125,125,0,0,1,125,125V1333.8L1510.8,969.7c-1-1.2-2.1-2.3-3.2-3.4a62.41,62.41,0,0,0-88-.3h0L837.8,1547.8l-362-362c-1-1.2-2.1-2.3-3.2-3.4a62.41,62.41,0,0,0-88-.3h0L124.9,1441.8V249.9A125,125,0,0,1,249.9,124.9ZM124.9,1750V1618.5L428.4,1315l321.1,321.1L510.6,1875H249.9A125,125,0,0,1,124.9,1750ZM1750,1875H687.4l776-776L1875,1510.6V1750A125,125,0,0,1,1750,1875Z" transform="translate(0.1 0.1)"/></svg>